<?xml version="1.0" encoding="utf-8"?>
<!-- Generator: Adobe Illustrator 22.0.1, SVG Export Plug-In . SVG Version: 6.00 Build 0)  -->
<svg version="1.1" id="Layer_1" xmlns="http://www.w3.org/2000/svg" xmlns:xlink="http://www.w3.org/1999/xlink" x="0px" y="0px"
	 viewBox="0 0 100.4 100.4" style="enable-background:new 0 0 100.4 100.4;" xml:space="preserve">
	<style type="text/css">
		.st1{display:inline;}
		.st2{fill:none;stroke:#000000;stroke-width:2;stroke-miterlimit:10;}
		.st3{fill:#FFFFFF;}
		.st4{fill:none;stroke:#FFFFFF;stroke-width:2;stroke-miterlimit:10;}
	</style>
	<g id="Hoehe">
		<path d="M-22.3,102.4c0,0,31.9-49.4,49.4-49.4c17.4,0,49.2,49.2,49.2,49.2"/>
		<path d="M35.2,110.5c0,0,31.9-49.4,49.4-49.4c17.4,0,49.2,49.2,49.2,49.2"/>
		<line class="st2" x1="31.2" y1="20.2" x2="69.1" y2="20.2"/>
		<line class="st2" x1="41.8" y1="30.2" x2="58.6" y2="30.2"/>
		<line class="st2" x1="31.2" y1="40.2" x2="69.1" y2="40.2"/>
		<line class="st2" x1="41.8" y1="50.2" x2="58.6" y2="50.2"/>
		<rect x="31.2" y="59.2" class="st3" width="37.9" height="1.9"/>
		<line class="st4" x1="41.8" y1="70.2" x2="58.6" y2="70.2"/>
		<line class="st4" x1="31.2" y1="80.2" x2="69.1" y2="80.2"/>
		<line class="st4" x1="41.8" y1="90.2" x2="58.6" y2="90.2"/>
		<line class="st2" x1="41.8" y1="10.2" x2="58.6" y2="10.2"/>
		<path d="M52.8,71.2h5.8v-2h-7.6C51.6,69.8,52.2,70.5,52.8,71.2z"/>
		<path d="M42.8,61.2h26.4v-2H40.4C41.2,59.8,42,60.5,42.8,61.2z"/>
	</g>
</svg>
