<?xml version="1.0" encoding="utf-8"?>
<!-- Generator: Adobe Illustrator 22.0.0, SVG Export Plug-In . SVG Version: 6.00 Build 0)  -->
<svg version="1.1" id="Layer_1" xmlns="http://www.w3.org/2000/svg" xmlns:xlink="http://www.w3.org/1999/xlink" x="0px" y="0px"
	 viewBox="0 0 32 32" style="enable-background:new 0 0 32 32;" xml:space="preserve">
<g>
	<path d="M17,16.9c-0.1-0.3-0.3-0.5-0.4-0.6c-0.2-0.2-0.4-0.2-0.7-0.2c-0.9,0-1.4,1-1.4,3c0,0.4,0,0.8,0.1,1.2
		c0,0.4,0.1,0.7,0.2,0.9c0.1,0.3,0.3,0.5,0.4,0.6c0.2,0.2,0.4,0.2,0.6,0.2c0.5,0,0.8-0.2,1-0.7c0.2-0.5,0.3-1.2,0.3-2.3
		c0-0.4,0-0.8-0.1-1.2C17.2,17.5,17.1,17.2,17,16.9z"/>
	<path d="M22.7,16.3c-0.1-0.1-0.3-0.2-0.4-0.2c-0.2,0-0.3-0.1-0.5-0.1c-0.2,0-0.5,0-0.6,0.1V19c0,0,0.1,0,0.3,0c0.1,0,0.2,0,0.3,0
		c0.2,0,0.3,0,0.5-0.1c0.2,0,0.3-0.1,0.4-0.2c0.1-0.1,0.2-0.3,0.3-0.5C23,18,23,17.8,23,17.4c0-0.3,0-0.5-0.1-0.7
		C22.9,16.6,22.8,16.4,22.7,16.3z"/>
	<path d="M16,0C7.2,0,0,7.2,0,16s7.2,16,16,16s16-7.2,16-16S24.8,0,16,0z M16,7.2l8.3,4.2l-0.7,1.3L16,8.8l-7.7,3.8l-0.7-1.3L16,7.2
		z M12.9,16.2h-2v7H9.4v-7h-2v-1.4h5.5V16.2z M18.1,22.3c-0.5,0.7-1.2,1.1-2.2,1.1c-0.5,0-1-0.1-1.4-0.3c-0.4-0.2-0.7-0.5-0.9-0.9
		c-0.2-0.4-0.4-0.8-0.5-1.4c-0.1-0.5-0.2-1.1-0.2-1.8c0-1.4,0.2-2.5,0.7-3.3c0.5-0.7,1.2-1.1,2.2-1.1c0.5,0,1,0.1,1.3,0.3
		c0.4,0.2,0.7,0.5,0.9,0.9c0.2,0.4,0.4,0.8,0.5,1.4c0.1,0.5,0.2,1.1,0.2,1.8C18.9,20.4,18.6,21.5,18.1,22.3z M24.4,18.8
		c-0.1,0.4-0.3,0.7-0.6,0.9s-0.5,0.4-0.9,0.5s-0.7,0.2-1,0.2c0,0-0.1,0-0.2,0c-0.1,0-0.1,0-0.2,0c-0.1,0-0.2,0-0.2,0
		c-0.1,0-0.1,0-0.2,0v2.9h-1.5v-8.3c0.3-0.1,0.6-0.1,0.9-0.1c0.3,0,0.7-0.1,1-0.1c0.4,0,0.7,0,1.1,0.1s0.7,0.2,1,0.4
		c0.3,0.2,0.5,0.5,0.7,0.8c0.2,0.4,0.3,0.8,0.3,1.4C24.6,18,24.5,18.4,24.4,18.8z"/>
</g>
</svg>
