<?xml version="1.0" encoding="utf-8"?>
<!-- Generator: Adobe Illustrator 22.0.1, SVG Export Plug-In . SVG Version: 6.00 Build 0)  -->
<svg version="1.1" id="Layer_1" xmlns="http://www.w3.org/2000/svg" xmlns:xlink="http://www.w3.org/1999/xlink" x="0px" y="0px"
	 viewBox="0 0 100.4 100.4" style="enable-background:new 0 0 100.4 100.4;" xml:space="preserve">
	<style type="text/css">
		.st1{display:inline;}
		.st2{display:inline;fill:none;stroke:#000000;stroke-width:2;stroke-miterlimit:10;}
		.st3{display:inline;fill:#FFFFFF;}
		.st4{display:inline;fill:none;stroke:#FFFFFF;stroke-width:2;stroke-miterlimit:10;}
	</style>
	<g id="Kolumbien">
		<path d="M15.3,66.6c0.2-0.5,0.7-1,0.8-1.5c0.2-0.7-0.3-1.3-0.2-1.9c0.2-1.1,1.4-1.8,1.5-3.1c0.7-0.3,0.6-0.1,1.1-0.8
			c0.3,0.3,0.9,0.4,1,0.5c0.5-0.8,1.1-0.4,1.9-0.9c0.7-0.6,0.9-1.4,1.4-2.1c1.4-1.6,3.2-2.9,4.5-4.7c-0.5-0.5-1.1-0.8-1.8-0.8
			c0.1-0.5-0.2-1.1-0.1-1.6c-0.2,0.3-0.8,0.5-1.1,0.7c-1.2-1.8-0.6-1.2,0-2.9c0.3-0.7,0.5-1.8,0.5-2.6c-0.1-1.3-2.4-5,0.8-4.5
			c0.1-0.5,0-1.2-0.2-1.6c-0.6-0.2-1.1-0.4-1.8-0.4c-0.3-1.8,2-1.5,0.7-3.3c-0.1-0.1-0.9,0-1.3-0.4c-0.5-0.5-0.6-1.1-0.8-1.8
			c-0.5-1.5-0.5-3.1,0.4-4.2c0.3-0.4,0.9-0.3,1.4-0.9c0.4-0.5,0.5-1.5,0.9-2c-1.1-0.8-1.1-3.9,0.8-3.3c0.9,0.2,0.3,0.9,0.8,1.4
			c0.1,0.1,0.8,0.2,0.9,0.4c0,0.1,0.1,1,0.1,1c0.2,0.6-1,0.9,0.5,1.2c1.1,0.3,1.4-0.2,1.3-1.3c-0.1-1.4-1.9-2.1-0.9-3.6
			c2.4,0.2,2.3-2,4.2-3c1.7-0.9,4.1-0.9,3.5-3.7c-0.8-0.1-1.1-0.1-1.5,0.7c-0.1-1.1,0.7-2.1,1.3-2.9c0.5-0.8,0.9-2.3,1.4-2.8
			c1.7-2,3.6-1.6,5.8-1.4c-0.4,0.5-0.7,1-0.9,1.6c0.3,0.2,0.7,0.4,1.1,0.4c0.7-1.5,0.9-2,1-3.6c1.1-0.1,1.6-0.7,2.6-0.9
			c1-0.2,2.1,0.1,3.2,0c2.2-0.3,3.6-1.7,5.5-2.6c-0.1-0.4,0-0.9-0.3-1.3c0.7-0.7,3-1.6,3.9-1.8c1.6-0.5,3.5-0.2,4.1,1.4
			c-1.3,0.9-3.3,0.9-4.5,1.8c-1.2,0.9-1.6,2.3-2.9,3.6c-2,1.8-5.1,4.6-5.1,7.5c0,0.7,0.4,1.4,0.2,2.2c-0.2,0.6-1.3,1.7-1.3,2.2
			c0.2,1.4,1.1,0.1,1.7,0.5c0.6,0.5,0.7,1.3,1.1,2.1c0.6,1.4,1.9,2.9,2.4,4.4c0.4,1.3-0.5,2.9,0.4,4c0.9,1.1,4.1,2.3,5.5,2.2
			c0.8-1.5,1.6,0,2.4,0c0.8,0,1.5-0.6,2.4-0.5c1.7,0.2,4.3,2.6,5.5,3.6c0.6,0.5,1.9,2.2,2.6,2.3c0.5,0.1,0.9-0.8,1.5-0.8
			c0.8,0,1,0.6,1.7,0.8c1.1,0.2,1.8-0.4,2.9-0.6c0.9-0.1,2,0.4,2.9,0c0.2,1.4,2.2,1.5,2.1,3.1c-0.1,1.3-2.3,2.7-3.5,2.6
			c-0.6,1.2,0.3,1.3,0.3,2c0.1,0.9,0,1.8,0,2.7c0,1.6,0,3.7,0.5,5.4c0.2,0.6,1,1,1,2c0,0.8-0.4,1.5-0.7,2.2C82,57.9,81,59,81.4,59.8
			c0.3,0.8,1.1,0.7,1.7,0c1.8,1.5,1.9,1.7,2.2,4c0.1,1.3,0.5,2.8,0.4,4.4c-0.7-1.1-0.8-3.6-1.8-4.4c-1.4-1.2-2.6,0.4-3.9,0.6
			c-0.9,0.1-1.5-0.2-2.4,0c-0.7,0.2-1.4,0.7-2.1,0.8c-1.7,0.3-3.6-0.4-5.3,0.2c-0.2,0.8-0.3,1.9,0.2,2.6c0.6,0.8,1.2,0.3,1.7,0.7
			c0.8,0.8,1.8,2.4,0.6,3.1c0.7,0,1.3,0.2,1.6,0.8c-2,1.6-1.7-0.3-3.2-0.2c-0.6,0-1.2,1.1-1.6,1.4c-1.1,0.8-0.8-0.6-1.2,1.1
			c-0.4,2.1,0.9,2.3,2.1,3.3c1,0.9,1.5,2.4,1.8,3.6c0.9,3.4,0.7,8.3-1.2,11.2c-0.9,1.5-0.9,2.2-1.3,3.9c-0.2,1-0.6,3-1.7,3.5
			c0-0.3-0.3-1-0.2-1.5c-1-0.2-1.5,0.4-2.5,0.3c-0.5-0.5,0-0.5-0.9-0.7c1-2.1,3.2-4.8,3.5-7.2c-0.2,0.1-0.6,0.1-0.9,0.4
			c-0.7-0.9-1-1.7-2.2-2.4c-0.2,0.2-0.6,0.5-0.7,0.7c-0.1-1.8-1.7-0.5-2.8-0.3c-0.8,0.2-0.7,0.2-1.8,0c-0.8-0.1-1.3-0.6-2.2-0.4
			c-1,0.2-1.7,1-2.7,1.1c-0.3,0-1.4-0.3-1.9-0.3c-0.9,0-3.2,0.9-3.1-0.7c1.4-0.5,1.1-1.2,0.3-2c-0.2-0.2-1.1,0-1.3-0.2
			c-0.4-0.5,0-1.1-0.2-1.6c-0.4-0.9-0.5-1.6-1.5-2.1c-1-0.5-1.9,0.1-2.7-0.9c0.1,0,0.3,0.2,0.4,0.2c-0.9-0.7-1.4-1.1-2-2.1
			c-0.6-1-0.7-2.2-1.9-2.9c-1.8-1.1-4.3-0.5-5.6-2.6c0.2-0.1,0.5-0.2,0.7-0.2c-1-0.6-6.3-2-4.8,1c-0.9-0.2-1.9,0-2.7-0.4
			c-0.8-0.3-1.1-1.1-2.1-1.4c-0.6-0.2-2.1,0.3-2.6,0c-1.1-0.8,0.5-1.6,0-2.4c-0.5-0.8-1.7-0.4-2.4-0.7c-0.6-0.2-1.6-0.9-2.2-1.2
			c-1.2-0.7-2.3-2.7-3.9-2.8c0.5,0.6-0.2,0.5-0.3,1"/>
	</g>
</svg>
