<?xml version="1.0" encoding="utf-8"?>
<!-- Generator: Adobe Illustrator 22.0.1, SVG Export Plug-In . SVG Version: 6.00 Build 0)  -->
<svg version="1.1" id="Layer_1" xmlns="http://www.w3.org/2000/svg" xmlns:xlink="http://www.w3.org/1999/xlink" x="0px" y="0px"
	 viewBox="0 0 100.4 100.4" style="enable-background:new 0 0 100.4 100.4;" xml:space="preserve">
	<style type="text/css">
		.st1{display:inline;}
		.st2{display:inline;fill:none;stroke:#000000;stroke-width:2;stroke-miterlimit:10;}
		.st3{display:inline;fill:#FFFFFF;}
		.st4{display:inline;fill:none;stroke:#FFFFFF;stroke-width:2;stroke-miterlimit:10;}
	</style>
	<g id="Geld">
		<g>
			<ellipse cx="63.2" cy="46.8" rx="11.1" ry="4.5"/>
			<path d="M73.1,51.5c-2.6,1.4-6.3,2-9.9,2c-3.6,0-7.3-0.6-9.9-2c-0.8,0.6-1.2,1.3-1.2,2c0,2.5,5,4.5,11.1,4.5s11.1-2,11.1-4.5
				C74.3,52.8,73.9,52.1,73.1,51.5z"/>
			<path d="M73.1,58.2c-2.6,1.4-6.3,2-9.9,2c-3.6,0-7.3-0.6-9.9-2c-0.8,0.6-1.2,1.3-1.2,2c0,2.5,5,4.5,11.1,4.5s11.1-2,11.1-4.5
				C74.3,59.5,73.9,58.8,73.1,58.2z"/>
			<path d="M73.1,64.9c-2.6,1.4-6.3,2-9.9,2c-3.6,0-7.3-0.6-9.9-2c-0.8,0.6-1.2,1.3-1.2,2c0,2.5,5,4.5,11.1,4.5s11.1-2,11.1-4.5
				C74.3,66.2,73.9,65.5,73.1,64.9z"/>
		</g>
		<g>
			<path d="M37.7,28.9c6.1,0,10.2,2,10.2,4.5s-5,4.5-11.1,4.5s-10.2-2-10.2-4.5S29.1,28.9,37.7,28.9z"/>
			<path d="M46.7,38c-2.6,1.4-6.3,2-9.9,2c-3.6,0-7.3-0.6-9.9-2c-0.8,0.6-0.3,1.3-0.3,2c0,2.5,4.1,4.5,10.2,4.5s11.1-2,11.1-4.5
				C47.9,39.3,47.4,38.6,46.7,38z"/>
			<path d="M46.7,44.7c-2.6,1.4-6.3,2-9.9,2c-3.6,0-7.3-0.6-9.9-2c-0.8,0.6-0.3,1.3-0.3,2c0,2.5,4.1,4.5,10.2,4.5s11.1-2,11.1-4.5
				C47.9,46,47.4,45.3,46.7,44.7z"/>
			<path d="M46.7,51.4c-2.6,1.4-6.3,2-9.9,2c-3.6,0-7.3-0.6-9.9-2c-0.8,0.6-0.3,1.3-0.3,2c0,2.5,4.1,4.5,10.2,4.5s11.1-2,11.1-4.5
				C47.9,52.6,47.4,52,46.7,51.4z"/>
			<g>
				<path d="M46.7,58.2c-2.6,1.4-6.3,2-9.9,2c-3.6,0-7.3-0.6-9.9-2c-0.8,0.6-0.3,1.3-0.3,2c0,2.5,4.1,4.5,10.2,4.5s11.1-2,11.1-4.5
					C47.9,59.5,47.4,58.8,46.7,58.2z"/>
				<path d="M46.7,64.9c-2.6,1.4-6.3,2-9.9,2c-3.6,0-7.3-0.6-9.9-2c-0.8,0.6-0.3,1.3-0.3,2c0,2.5,2.6,4.5,11.1,4.5
					c6.1,0,10.2-2,10.2-4.5C47.9,66.2,47.4,65.5,46.7,64.9z"/>
			</g>
		</g>
		<g>
			<g>
				<ellipse cx="89.2" cy="40.1" rx="11.1" ry="4.5"/>
				<path d="M99.1,44.8c-2.6,1.4-6.3,2-9.9,2s-7.3-0.6-9.9-2c-0.8,0.6-1.2,1.3-1.2,2c0,2.5,5,4.5,11.1,4.5s11.1-2,11.1-4.5
					C100.4,46,99.9,45.4,99.1,44.8z"/>
				<path d="M99.1,51.4c-2.6,1.4-6.3,2-9.9,2s-7.3-0.6-9.9-2c-0.8,0.6-1.2,1.3-1.2,2c0,2.5,5,4.5,11.1,4.5s11.1-2,11.1-4.5
					C100.4,52.7,99.9,52,99.1,51.4z"/>
				<path d="M99.1,58.1c-2.6,1.4-6.3,2-9.9,2s-7.3-0.6-9.9-2c-0.8,0.6-1.2,1.3-1.2,2c0,2.5,5,4.5,11.1,4.5s11.1-2,11.1-4.5
					C100.4,59.4,99.9,58.7,99.1,58.1z"/>
			</g>
			<g>
				<path d="M99.1,51.5c-2.6,1.4-6.3,2-9.9,2s-7.3-0.6-9.9-2c-0.8,0.6-1.2,1.3-1.2,2c0,2.5,5,4.5,11.1,4.5s11.1-2,11.1-4.5
					C100.4,52.8,99.9,52.1,99.1,51.5z"/>
				<path d="M99.1,58.2c-2.6,1.4-6.3,2-9.9,2s-7.3-0.6-9.9-2c-0.8,0.6-1.2,1.3-1.2,2c0,2.5,5,4.5,11.1,4.5s11.1-2,11.1-4.5
					C100.4,59.5,99.9,58.8,99.1,58.2z"/>
				<path d="M99.1,64.9c-2.6,1.4-6.3,2-9.9,2s-7.3-0.6-9.9-2c-0.8,0.6-1.2,1.3-1.2,2c0,2.5,5,4.5,11.1,4.5s11.1-2,11.1-4.5
					C100.4,66.2,99.9,65.5,99.1,64.9z"/>
			</g>
		</g>
		<g>
			<g>
				<ellipse cx="11.2" cy="53.4" rx="11.1" ry="4.5"/>
				<path d="M21,58.1c-2.6,1.4-6.3,2-9.9,2s-7.3-0.6-9.9-2c-0.8,0.6-1.2,1.3-1.2,2c0,2.5,5,4.5,11.1,4.5s11.1-2,11.1-4.5
					C22.3,59.3,21.8,58.7,21,58.1z"/>
			</g>
			<path d="M21,65c-2.6,1.4-6.3,2-9.9,2s-7.3-0.6-9.9-2C0.5,65.6,0,66.3,0,67c0,2.5,5,4.5,11.1,4.5s11.1-2,11.1-4.5
				C22.3,66.3,21.8,65.6,21,65z"/>
		</g>
	</g>
</svg>
