<?xml version="1.0" encoding="utf-8"?>
<!-- Generator: Adobe Illustrator 22.0.1, SVG Export Plug-In . SVG Version: 6.00 Build 0)  -->
<svg version="1.1" xmlns="http://www.w3.org/2000/svg" xmlns:xlink="http://www.w3.org/1999/xlink" x="0px" y="0px"
	 viewBox="0 0 374.06 212.6" enable-background="new 0 0 374.06 212.6" xml:space="preserve">
<g id="Logo">
	<g>
		<path d="M171.99,89.99h-2.62l-6.97-9.27l-2,1.78v7.49h-2.22V70.87h2.22v9.48l8.67-9.48h2.63l-7.69,8.31L171.99,89.99z"/>
		<path d="M191.04,80.55c0,3.01-0.77,5.38-2.32,7.11c-1.55,1.73-3.7,2.59-6.45,2.59c-2.82,0-4.99-0.85-6.52-2.54
			c-1.53-1.7-2.3-4.09-2.3-7.18c0-3.07,0.77-5.44,2.3-7.13c1.53-1.69,3.71-2.53,6.54-2.53c2.75,0,4.89,0.86,6.44,2.58
			C190.27,75.16,191.04,77.53,191.04,80.55z M175.8,80.55c0,2.55,0.55,4.48,1.65,5.8c1.1,1.32,2.71,1.98,4.81,1.98
			c2.12,0,3.72-0.66,4.8-1.97c1.08-1.31,1.62-3.25,1.62-5.81c0-2.53-0.54-4.45-1.62-5.76c-1.08-1.31-2.67-1.96-4.78-1.96
			c-2.12,0-3.73,0.66-4.83,1.98C176.35,76.12,175.8,78.04,175.8,80.55z"/>
		<path d="M209.8,89.99h-2.54l-10.45-16.05h-0.1c0.14,1.88,0.21,3.61,0.21,5.18v10.87h-2.05V70.87h2.51l10.42,15.98h0.1
			c-0.02-0.24-0.06-0.99-0.12-2.27c-0.06-1.28-0.08-2.19-0.07-2.74V70.87h2.08V89.99z"/>
		<path d="M216.75,82.04v7.95h-2.22V70.87h5.25c2.35,0,4.08,0.45,5.2,1.35c1.12,0.9,1.68,2.25,1.68,4.05c0,2.53-1.28,4.24-3.85,5.13
			l5.19,8.59h-2.63l-4.63-7.95H216.75z M216.75,80.13h3.05c1.57,0,2.72-0.31,3.45-0.94c0.73-0.62,1.1-1.56,1.1-2.81
			c0-1.26-0.37-2.18-1.12-2.73c-0.75-0.56-1.94-0.84-3.59-0.84h-2.89V80.13z"/>
		<path d="M244.78,89.99l-2.38-6.08h-7.66l-2.35,6.08h-2.25l7.53-19.12h1.93l7.49,19.12H244.78z M241.7,81.91l-2.22-5.93
			c-0.29-0.75-0.58-1.67-0.89-2.76c-0.19,0.84-0.47,1.76-0.82,2.76l-2.25,5.93H241.7z"/>
		<path d="M264.97,80.24c0,3.16-0.86,5.57-2.57,7.24c-1.71,1.67-4.18,2.5-7.4,2.5h-5.3V70.87h5.86c2.97,0,5.28,0.82,6.93,2.47
			C264.15,74.99,264.97,77.29,264.97,80.24z M262.62,80.32c0-2.49-0.63-4.37-1.88-5.64c-1.25-1.26-3.11-1.9-5.58-1.9h-3.23v15.28
			h2.71c2.65,0,4.64-0.65,5.98-1.96C261.95,84.81,262.62,82.88,262.62,80.32z"/>
		<path d="M169.94,115.86l-1.39-4.55h-6.97l-1.39,4.55h-4.37l6.72-19.12h5.01l6.75,19.12H169.94z M167.59,107.91
			c-1.28-4.12-2-6.46-2.16-7c-0.16-0.54-0.28-0.97-0.35-1.28c-0.29,1.12-1.11,3.88-2.47,8.28H167.59z"/>
		<path d="M193.15,106.11c0,3.15-0.9,5.56-2.69,7.23c-1.79,1.67-4.38,2.51-7.76,2.51h-5.42V96.73h6c3.12,0,5.55,0.82,7.27,2.47
			C192.28,100.86,193.15,103.16,193.15,106.11z M188.94,106.22c0-4.11-1.81-6.16-5.44-6.16h-2.16v12.45h1.74
			C186.98,112.51,188.94,110.41,188.94,106.22z"/>
		<path d="M208.12,115.86h-11.01V96.73h11.01v3.32h-6.96v4.2h6.47v3.32h-6.47v4.93h6.96V115.86z"/>
		<path d="M229.36,115.86h-5.15l-8.32-14.47h-0.12c0.17,2.56,0.25,4.38,0.25,5.47v9h-3.62V96.73h5.11l8.31,14.32h0.09
			c-0.13-2.48-0.2-4.24-0.2-5.27v-9.05h3.65V115.86z"/>
		<path d="M246.51,115.86l-1.39-4.55h-6.97l-1.39,4.55h-4.37l6.72-19.12h5.01l6.75,19.12H246.51z M244.16,107.91
			c-1.28-4.12-2-6.46-2.16-7c-0.16-0.54-0.28-0.97-0.35-1.28c-0.29,1.12-1.11,3.88-2.47,8.28H244.16z"/>
		<path d="M268.65,96.73v12.37c0,1.41-0.32,2.65-0.95,3.71c-0.63,1.06-1.55,1.88-2.74,2.45c-1.19,0.57-2.61,0.85-4.24,0.85
			c-2.46,0-4.37-0.63-5.73-1.89c-1.36-1.26-2.04-2.98-2.04-5.17V96.73h4.04v11.71c0,1.47,0.3,2.56,0.89,3.24
			c0.59,0.69,1.57,1.03,2.94,1.03c1.33,0,2.29-0.35,2.88-1.04c0.6-0.69,0.9-1.78,0.9-3.26V96.73H268.65z"/>
		<path d="M283.8,115.86h-11.01V96.73h11.01v3.32h-6.96v4.2h6.47v3.32h-6.47v4.93h6.96V115.86z"/>
		<path d="M291.97,108.52v7.34h-4.05V96.73h5.57c2.6,0,4.52,0.47,5.77,1.42c1.25,0.95,1.87,2.38,1.87,4.31c0,1.12-0.31,2.13-0.93,3
			c-0.62,0.88-1.5,1.56-2.63,2.06c2.88,4.3,4.75,7.08,5.62,8.33h-4.5l-4.56-7.34H291.97z M291.97,105.22h1.31
			c1.28,0,2.23-0.21,2.84-0.64c0.61-0.43,0.92-1.1,0.92-2.01c0-0.91-0.31-1.55-0.93-1.94c-0.62-0.38-1.59-0.58-2.9-0.58h-1.23
			V105.22z"/>
		<path d="M169.53,136.16c0,1.73-0.62,3.09-1.86,4.08c-1.24,0.99-2.97,1.49-5.19,1.49c-2.04,0-3.85-0.38-5.42-1.15v-3.77
			c1.29,0.58,2.38,0.98,3.28,1.22c0.89,0.24,1.71,0.35,2.45,0.35c0.89,0,1.57-0.17,2.05-0.51c0.48-0.34,0.71-0.85,0.71-1.52
			c0-0.37-0.1-0.71-0.31-1c-0.21-0.29-0.52-0.57-0.92-0.84c-0.41-0.27-1.23-0.7-2.48-1.3c-1.17-0.55-2.05-1.08-2.63-1.58
			c-0.58-0.51-1.05-1.09-1.4-1.77c-0.35-0.67-0.52-1.46-0.52-2.35c0-1.69,0.57-3.02,1.72-3.99c1.15-0.97,2.73-1.45,4.75-1.45
			c0.99,0,1.94,0.12,2.85,0.35c0.9,0.24,1.85,0.57,2.83,0.99l-1.31,3.15c-1.02-0.42-1.86-0.71-2.53-0.88
			c-0.67-0.17-1.32-0.25-1.97-0.25c-0.77,0-1.36,0.18-1.77,0.54c-0.41,0.36-0.61,0.82-0.61,1.4c0,0.36,0.08,0.67,0.25,0.93
			c0.17,0.27,0.43,0.52,0.79,0.77c0.36,0.25,1.22,0.7,2.57,1.34c1.79,0.85,3.01,1.71,3.68,2.57
			C169.19,133.86,169.53,134.91,169.53,136.16z"/>
		<path d="M180.9,141.73h-4.05v-15.75h-5.19v-3.37h14.44v3.37h-5.19V141.73z"/>
		<path d="M189.78,141.73v-19.12h4.05v19.12H189.78z"/>
		<path d="M202.47,141.73h-3.99v-19.12h10.96v3.32h-6.97v4.93h6.49v3.31h-6.49V141.73z"/>
		<path d="M221.37,141.73h-4.05v-15.75h-5.19v-3.37h14.44v3.37h-5.19V141.73z"/>
		<path d="M245.39,122.61v12.1c0,1.41-0.32,2.65-0.95,3.71c-0.63,1.06-1.55,1.88-2.74,2.45c-1.19,0.57-2.61,0.85-4.24,0.85
			c-2.46,0-4.37-0.63-5.73-1.89c-1.36-1.26-2.04-2.98-2.04-5.17v-12.05h4.04v11.43c0,1.47,0.3,2.56,0.89,3.24
			c0.59,0.69,1.57,1.03,2.94,1.03c1.33,0,2.29-0.35,2.88-1.04c0.6-0.69,0.9-1.78,0.9-3.26v-11.41H245.39z"/>
		<path d="M267.16,141.73h-5.15l-8.32-14.47h-0.12c0.17,2.56,0.25,4.38,0.25,5.47v9h-3.62v-19.12h5.11l8.31,14.32h0.09
			c-0.13-2.48-0.2-4.24-0.2-5.27v-9.05h3.65V141.73z"/>
		<path d="M279.24,130.73h7.59v9.91c-1.23,0.4-2.39,0.68-3.47,0.84c-1.09,0.16-2.2,0.24-3.33,0.24c-2.89,0-5.09-0.85-6.61-2.54
			c-1.52-1.7-2.28-4.13-2.28-7.31c0-3.09,0.88-5.49,2.65-7.22c1.77-1.73,4.21-2.59,7.34-2.59c1.96,0,3.85,0.39,5.68,1.18l-1.35,3.24
			c-1.4-0.7-2.85-1.05-4.36-1.05c-1.75,0-3.16,0.59-4.21,1.77c-1.06,1.18-1.58,2.76-1.58,4.75c0,2.08,0.43,3.66,1.28,4.75
			c0.85,1.09,2.09,1.64,3.71,1.64c0.85,0,1.7-0.09,2.58-0.26v-3.99h-3.62V130.73z"/>
		<g>
			<polygon fill="#004682" points="70.87,70.87 70.87,141.73 95.22,141.73 135.88,70.87 			"/>
			<polygon fill="#004682" points="117.99,127.92 110.07,141.73 141.73,141.73 141.73,127.92 			"/>
			<polygon fill="#004682" points="141.73,116.06 141.73,86.55 124.8,116.06 			"/>
		</g>
	</g>
</g>
<g id="Schutzraum" display="none">
	<rect x="70.87" display="inline" fill="#E5ECF2" width="70.87" height="70.87"/>
	<rect x="70.87" y="141.73" display="inline" fill="#E5ECF2" width="70.87" height="70.87"/>
	<rect y="70.87" display="inline" fill="#E5ECF2" width="70.87" height="70.87"/>
	<rect x="303.19" y="70.87" display="inline" fill="#E5ECF2" width="70.87" height="70.87"/>
</g>
</svg>
