<?xml version="1.0" encoding="utf-8"?>
<!-- Generator: Adobe Illustrator 22.0.1, SVG Export Plug-In . SVG Version: 6.00 Build 0)  -->
<svg version="1.1" id="Layer_1" xmlns="http://www.w3.org/2000/svg" xmlns:xlink="http://www.w3.org/1999/xlink" x="0px" y="0px"
	 viewBox="0 0 100 100" style="enable-background:new 0 0 100 100;" xml:space="preserve">
<g>
	<path d="M43.9,67.7c6.3-2.4,10.8-8.5,10.8-15.7c0-9.3-7.5-16.8-16.8-16.8S21.1,42.7,21.1,52c0,7.2,4.5,13.3,10.8,15.7
		C18.5,70.1,8.3,80.2,7.7,92.6c7,4.5,17.9,7.4,30.2,7.4s23.2-2.9,30.2-7.4C67.4,80.2,57.2,70.1,43.9,67.7z"/>
	<path d="M74.1,29.6c4.6-1.9,7.9-6.5,7.9-11.8c0-7-5.7-12.7-12.7-12.7s-12.7,5.7-12.7,12.7c0,5.3,3.3,9.9,8,11.8
		c-5.1,1-9.5,3.4-12.7,6.8c4.4,3.7,7.2,9.3,7.2,15.5c0,0.4,0,0.8,0,1.1c3.2,0.6,6.7,1,10.4,1c9.3,0,17.6-2.2,22.9-5.6
		C91.8,39.1,84.2,31.4,74.1,29.6z"/>
</g>
</svg>
