<?xml version="1.0" encoding="utf-8"?>
<!-- Generator: Adobe Illustrator 22.0.1, SVG Export Plug-In . SVG Version: 6.00 Build 0)  -->
<svg version="1.1" id="Layer_1" xmlns="http://www.w3.org/2000/svg" xmlns:xlink="http://www.w3.org/1999/xlink" x="0px" y="0px"
	 viewBox="0 0 100 100" style="enable-background:new 0 0 100 100;" xml:space="preserve">
<path d="M92.3,47.7c-0.5-0.7-1-1.2-1.5-1.6l-7.9-26.9c-0.7-2.6-3.1-4.3-5.7-4.3H59.9l-0.8-5.3c-0.3-1.7-1.7-3-3.5-3H44.5
	c-1.7,0-3.2,1.3-3.5,3l-0.8,5.3H22.9c-2.7,0-5,1.8-5.8,4.3L9.2,46.1c-0.5,0.4-1,1-1.5,1.6C4.2,52,2.5,57.4,2.5,63v18.9
	c0,1.7,1.4,3,3,3h8.2v10.8c0,2.4,1.9,4.3,4.3,4.3h3.4c2.4,0,4.3-1.9,4.3-4.3V84.9h48.6v10.8c0,2.4,1.9,4.3,4.3,4.3H82
	c2.4,0,4.3-1.9,4.3-4.3V84.9h6.9c2.4,0,4.3-1.9,4.3-4.3V62.9C97.5,57.5,95.7,52.1,92.3,47.7z M19.7,72c-3.7,0-6.8-3-6.8-6.8
	c0-3.7,3-6.8,6.8-6.8c3.7,0,6.8,3,6.8,6.8C26.4,69,23.4,72,19.7,72z M80.3,72c-3.7,0-6.8-3-6.8-6.8c0-3.7,3-6.8,6.8-6.8
	c3.7,0,6.8,3,6.8,6.8S84,72,80.3,72z"/>
</svg>
