<?xml version="1.0" encoding="utf-8"?>
<!-- Generator: Adobe Illustrator 22.0.1, SVG Export Plug-In . SVG Version: 6.00 Build 0)  -->
<svg version="1.1" id="Layer_1" xmlns="http://www.w3.org/2000/svg" xmlns:xlink="http://www.w3.org/1999/xlink" x="0px" y="0px"
	 viewBox="0 0 100 100" style="enable-background:new 0 0 100 100;" xml:space="preserve">
<g id="Argentinien">
	<path d="M43.5,90.8c-2.9-1.1-8.3,0.3-7.2-5.3c-1.5,3.3-4.3-1.6-3.2-3.9c2.5-2.7,0.3-4.9,1.2-6.8c0.2,0.2,0.4,0.3,0.5,0.5
		c0.1-2.3,0.2-4.1-0.5-6.3c0.2,0.1,0.4,0.1,0.7,0.2c0.3-1.8-1.8-1.8-2.3-3.3c0.7-0.4,0.7-0.4,1.8-0.4c-2.2-2.2-2.2-5.6-3.4-7.8
		l1.1-1.1c-1.1-2.2-1.1-5.6-1.1-7.8c0,0,1.1-1.1,2-1.3c-1.2-1.7-2.6-7.6-0.4-8.4c-0.5-3.7,2.8-7.1-1.7-11.5c0-1.1,0-2.2-0.1-2.9
		c-0.1,0.4,0.8-0.9,0.7-0.7c0.5-2.1,0.5-3.2,0.7-5.7c0,0.5-1,1.2,0,0c0,0.5-0.2,0.6-0.3,1"/>
	<path d="M31.9,18.3c0.4-3.4,3.7-4.5,1.5-9l1.1-1.1l-1.1-1.1c2.2-1.1,2.2-3.4,3.4-5.6s3.4-1.1,6-1.1c-0.2,1.8-2.6,0.7,0,0
		c-0.3,1.1-0.3,1.1,0.8,1.1c1.1-1.1,2.2-1.1,3.4-1.1c1.1,1.1,2.2,2.2,3.4,3.4c5.6,1.1,11.2,4.5,7.7,10.1c2.6-1.1,1.2-2.2,0,0
		c1.3,0,2.4,0,3.5,1.1c4.5,1.1,3.4-4.5,7.8-5.6c0,1.1,0,2.2,0,3.4c-2.2,2.2-4.5,4.5-6.7,6.7c-2.2,2.2-2.2,5.6-3.4,9
		c0,3.4,4.5,5.6,4.5,9l-1.1,1.1c0,2.2,2.2,1.1,3.4,1.1c-1.1,1.1-1.1,3.4-2.2,4.5c-2.2,2.2-5.6,3.4-10.2,1.7
		c-0.6,1.1,0.3,0.9,0.1,1.9c0.1,0.4,0.2,0.7,0.4,1.1c-0.4,0.9-0.4,3.2-0.4,4.3c-2.2,3.4-4.5-1.1-6.7-0.2c0.9,1.9,1,4.7,3.1,4.1
		c0.7-1,1.7,0.4,1.5,1.5c-0.3,1.5-2.1,1.6-1.7-0.2c-0.8,0.1-1.4,0.7-1.6,1.5c0.4,0,0.8,0.2,1.3,0.2c-1.5,3.2-2.6,6.5-4.8,9.9
		c0,1.1,1.1,2.2,3.4,3.4c1.1,1.1,1.1,2.2,1.1,3.4c-4.5,0,0,5.6-4.4,5.8c0.4,1.3,1.8,1.1,0,0c-0.6-0.3-0.1,5.1,0,5.5
		c0.4,2.3,1,3.2,2.2,5.2c0.6,1,1.1,2,2,2.9c0.9,0.9,1.9,1.2,3,1.8c0.3,0.2,1.4,0.9,1.7,1c0.9,0.2,1.6-0.3,2.5-0.2c0,2-7.2,1-8.7,1.3
		c-0.1-3.7-0.9-6.9-3.9-9.2c-0.1,0.5-0.5,0.5-0.6,1"/>
</g>
</svg>
