<?xml version="1.0" encoding="utf-8"?>
<!-- Generator: Adobe Illustrator 22.0.1, SVG Export Plug-In . SVG Version: 6.00 Build 0)  -->
<svg version="1.1" id="Layer_1" xmlns="http://www.w3.org/2000/svg" xmlns:xlink="http://www.w3.org/1999/xlink" x="0px" y="0px"
	 viewBox="0 0 100 100" style="enable-background:new 0 0 100 100;" xml:space="preserve">
<g id="Einwohner">
	<g>
		<path d="M90.6,56.9c0.8,0.8,1.8,0.3,3,0.3c2.3,0,4.1-0.9,4.1-3.1s-1.9-4.1-4.1-4.1c-0.9,0-1.8,0.3-2.4,0.8
			c0.3,0.8,0.5,1.6,0.5,2.5C91.6,54.6,91.2,55.8,90.6,56.9z"/>
		<path d="M92.1,60.1c1.3,1.3,2,3.1,2,5.1v9c0,1.8-1.1,3.5-2.8,4.2v8.1c0.1,0,0.2,0,0.3,0h3.8c1.1,0,2-0.9,2-2v-9.8l0.9-0.2
			c0.9-0.2,1.6-1,1.6-2v-8.1c0-2.4-2-4.4-4.4-4.4H92.1z"/>
		<path d="M80.7,55.8c0.8,1.3,2.3,1.2,4,1.2c2.6,0,4.7-1.1,4.7-3.7s-2.1-4.7-4.7-4.7c-1.4,0-2.7,0.6-3.5,1.6
			c0.2,0.7,0.4,1.5,0.4,2.3C81.5,53.6,81.2,54.8,80.7,55.8z"/>
		<path d="M91.9,65.1c0-2.8-2.3-5.1-5.1-5.1h-4.4c-0.2,0-0.4,0-0.5,0.1c1.5,1.4,2.4,3.4,2.4,5.6v10c0,2-1.2,3.8-3.1,4.6v9.2
			c0.4,0.3,0.8,0.4,1.3,0.4h4.2c1.3,0,2.4-1.1,2.4-2.4V76.7l0.9-0.2c1.1-0.2,1.9-1.2,1.9-2.3L91.9,65.1L91.9,65.1z"/>
		<path d="M69.5,55.5c1,1.4,2.6,2.3,4.4,2.3c3,0,5.4-2.4,5.4-5.4s-2.4-5.4-5.4-5.4c-1.6,0-3,0.7-3.9,1.7c0.3,0.9,0.5,1.8,0.5,2.8
			C70.4,53,70.1,54.3,69.5,55.5z"/>
		<path d="M82,75.7v-10c0-3.2-2.6-5.7-5.7-5.7h-4.8c-0.2,0-0.5,0-0.7,0.1c1.7,1.6,2.7,3.8,2.7,6.3v10.9c0,2.2-1.4,4.2-3.3,5v10.6
			c0.4,0.2,0.9,0.4,1.4,0.4h4.7c1.5,0,2.8-1.2,2.8-2.8V78.6l0.9-0.2C81.1,78.2,82,77,82,75.7z"/>
		<path d="M57.6,55.3c1.1,1.4,2.8,2.3,4.6,2.3c3.3,0,6-2.7,6-6s-2.7-6-6-6c-1.6,0-3,0.6-4.1,1.7c0.5,1.1,0.7,2.3,0.7,3.5
			C58.9,52.4,58.4,54,57.6,55.3z"/>
		<path d="M71.3,77.3V66.4c0-3.5-2.9-6.4-6.4-6.4h-5.3c-0.2,0-0.4,0-0.6,0c1.9,1.7,3.2,4.2,3.2,7v11.9c0,2.4-1.5,4.5-3.6,5.3v12.2
			c0.4,0.1,0.7,0.2,1.1,0.2h5.1c1.7,0,3.1-1.4,3.1-3.1V80.6l0.9-0.2C70.2,80.1,71.3,78.8,71.3,77.3z"/>
		<path d="M9.5,56.9c-0.6-1.1-1-2.3-1-3.6c0-0.9,0.2-1.7,0.5-2.5c-0.7-0.5-1.5-0.8-2.4-0.8c-2.3,0-4.1,1.9-4.1,4.1s1.9,3.1,4.1,3.1
			C7.6,57.2,8.7,57.7,9.5,56.9z"/>
		<path d="M1.7,74.6l0.9,0.2v9.8c0,1.1,0.9,2,2,2h3.8c0.1,0,0.2,0,0.3,0v-8.1C7,77.7,5.9,76,5.9,74.2v-9c0-2,0.8-3.7,2-5.1H4.5
			c-2.4,0-4.4,2-4.4,4.4v8.1C0.1,73.5,0.7,74.4,1.7,74.6z"/>
		<path d="M15.4,57c1.7,0,3.1,0.1,4-1.2c-0.5-1-0.8-2.2-0.8-3.4c0-0.8,0.1-1.6,0.4-2.3c-0.9-1-2.1-1.6-3.5-1.6
			c-2.6,0-4.7,2.1-4.7,4.7C10.7,55.9,12.8,57,15.4,57z"/>
		<path d="M18.8,80.4c-1.8-0.8-3.1-2.6-3.1-4.6v-10c0-2.2,0.9-4.2,2.4-5.6c-0.2,0-0.4-0.1-0.5-0.1h-4.4c-2.8,0-5.1,2.3-5.1,5.1v9
			c0,1.1,0.8,2.1,1.9,2.3l0.9,0.2v10.8c0,1.3,1.1,2.4,2.4,2.4h4.2c0.5,0,0.9-0.1,1.3-0.4L18.8,80.4L18.8,80.4z"/>
		<path d="M26.2,57.8c1.8,0,3.4-0.9,4.4-2.3c-0.6-1.2-1-2.5-1-3.9c0-1,0.2-1.9,0.5-2.8c-1-1.1-2.4-1.7-3.9-1.7c-3,0-5.4,2.4-5.4,5.4
			S23.2,57.8,26.2,57.8z"/>
		<path d="M29.9,82.3c-2-0.8-3.3-2.8-3.3-5V66.4c0-2.5,1.1-4.7,2.7-6.3c-0.2,0-0.5-0.1-0.7-0.1h-4.8c-3.2,0-5.7,2.6-5.7,5.7v10
			c0,1.3,0.9,2.4,2.2,2.7l0.9,0.2v11.9c0,1.5,1.2,2.8,2.8,2.8h4.7c0.5,0,1-0.2,1.4-0.4L29.9,82.3L29.9,82.3z"/>
		<path d="M37.8,57.6c1.9,0,3.5-0.9,4.6-2.3c-0.8-1.3-1.3-2.9-1.3-4.5c0-1.2,0.3-2.4,0.7-3.5c-1.1-1-2.5-1.7-4.1-1.7
			c-3.3,0-6,2.7-6,6C31.9,54.9,34.5,57.6,37.8,57.6z"/>
		<path d="M41.5,84.2c-2.2-0.9-3.6-3-3.6-5.3V67c0-2.8,1.2-5.3,3.2-7c-0.2,0-0.4,0-0.6,0h-5.3c-3.5,0-6.4,2.9-6.4,6.4v10.9
			c0,1.5,1,2.7,2.5,3.1l0.9,0.2v12.9c0,1.7,1.4,3.1,3.1,3.1h5.1c0.4,0,0.8-0.1,1.1-0.2V84.2z"/>
		<path d="M50,57.4c3.6,0,6.6-3,6.6-6.6s-3-6.6-6.6-6.6c-3.6,0-6.6,3-6.6,6.6C43.4,54.4,46.4,57.4,50,57.4z"/>
		<path d="M59.9,78.9V67c0-3.9-3.1-7-7-7h-5.8c-3.9,0-7,3.1-7,7v11.9c0,1.6,1.2,3.1,2.8,3.4l0.9,0.2v14c0,1.9,1.6,3.5,3.5,3.5h5.5
			c1.9,0,3.5-1.6,3.5-3.5v-14l0.9-0.2C58.8,82,59.9,80.5,59.9,78.9z"/>
	</g>
</g>
</svg>
