<?xml version="1.0" encoding="utf-8"?>
<!-- Generator: Adobe Illustrator 22.0.1, SVG Export Plug-In . SVG Version: 6.00 Build 0)  -->
<svg version="1.1" id="Layer_1" xmlns="http://www.w3.org/2000/svg" xmlns:xlink="http://www.w3.org/1999/xlink" x="0px" y="0px"
	 viewBox="0 0 100 100" style="enable-background:new 0 0 100 100;" xml:space="preserve">
<rect x="31.2" y="19.2" width="37.9" height="2"/>
<rect x="41.8" y="29.2" width="16.8" height="2"/>
<rect x="31.2" y="39.2" width="37.9" height="2"/>
<rect x="41.8" y="49.2" width="16.8" height="2"/>
<path d="M61.2,81.2H31.2v-2h28.3c-2.2-2.7-4.5-5.4-6.8-8h-11v-2h9.1c-2.7-2.9-5.5-5.7-8.2-8.1H31.2v-1.9h9.1
	C35.6,55.4,31,53,27.1,53c-17.5,0-49.4,49.4-49.4,49.4l98.6-0.2C76.3,102.1,69.8,92.2,61.2,81.2z M41.8,91.2v-2h16.8v2H41.8z"/>
<rect x="41.8" y="9.2" width="16.8" height="2"/>
<path d="M84.6,61.1c-7.2,0-16.8,8.3-25.6,18.1h10.1v2H57.3c-2.3,2.6-4.5,5.3-6.6,8h8v2H49c-8,10.3-13.8,19.3-13.8,19.3l98.6-0.2
	C133.8,110.2,102,61.1,84.6,61.1z"/>
<polygon points="69.1,61.1 42.7,61.1 40.4,59.2 69.1,59.2 "/>
<polygon points="58.6,71.2 52.8,71.2 50.9,69.2 58.6,69.2 "/>
</svg>
