<?xml version="1.0" encoding="utf-8"?>
<!-- Generator: Adobe Illustrator 22.0.1, SVG Export Plug-In . SVG Version: 6.00 Build 0)  -->
<svg version="1.1" id="Layer_1" xmlns="http://www.w3.org/2000/svg" xmlns:xlink="http://www.w3.org/1999/xlink" x="0px" y="0px"
	 viewBox="0 0 100 100" style="enable-background:new 0 0 100 100;" xml:space="preserve">
<g id="Geld">
	<g>
		<ellipse cx="63.2" cy="75.4" rx="11.1" ry="4.5"/>
		<path d="M73.1,80.1c-2.6,1.4-6.3,2-9.9,2c-3.6,0-7.3-0.6-9.9-2c-0.8,0.6-1.2,1.3-1.2,2c0,2.5,5,4.5,11.1,4.5s11.1-2,11.1-4.5
			C74.3,81.3,73.9,80.7,73.1,80.1z"/>
		<path d="M73.1,86.7c-2.6,1.4-6.3,2-9.9,2c-3.6,0-7.3-0.6-9.9-2c-0.8,0.6-1.2,1.3-1.2,2c0,2.5,5,4.5,11.1,4.5s11.1-2,11.1-4.5
			C74.3,88,73.9,87.3,73.1,86.7z"/>
		<path d="M73.1,93.4c-2.6,1.4-6.3,2-9.9,2c-3.6,0-7.3-0.6-9.9-2c-0.8,0.6-1.2,1.3-1.2,2c0,2.5,5,4.5,11.1,4.5s11.1-2,11.1-4.5
			C74.3,94.7,73.9,94,73.1,93.4z"/>
	</g>
	<g>
		<path d="M37.7,57.4c6.1,0,10.2,2,10.2,4.5c0,2.5-5,4.5-11.1,4.5s-10.2-2-10.2-4.5C26.6,59.4,29.1,57.4,37.7,57.4z"/>
		<path d="M46.7,66.5c-2.6,1.4-6.3,2-9.9,2c-3.6,0-7.3-0.6-9.9-2c-0.8,0.6-0.3,1.3-0.3,2c0,2.5,4.1,4.5,10.2,4.5s11.1-2,11.1-4.5
			C47.9,67.8,47.4,67.1,46.7,66.5z"/>
		<path d="M46.7,73.2c-2.6,1.4-6.3,2-9.9,2c-3.6,0-7.3-0.6-9.9-2c-0.8,0.6-0.3,1.3-0.3,2c0,2.5,4.1,4.5,10.2,4.5s11.1-2,11.1-4.5
			C47.9,74.5,47.4,73.8,46.7,73.2z"/>
		<path d="M46.7,79.9c-2.6,1.4-6.3,2-9.9,2c-3.6,0-7.3-0.6-9.9-2c-0.8,0.6-0.3,1.3-0.3,2c0,2.5,4.1,4.5,10.2,4.5s11.1-2,11.1-4.5
			C47.9,81.2,47.4,80.5,46.7,79.9z"/>
		<g>
			<path d="M46.7,86.7c-2.6,1.4-6.3,2-9.9,2c-3.6,0-7.3-0.6-9.9-2c-0.8,0.6-0.3,1.3-0.3,2c0,2.5,4.1,4.5,10.2,4.5s11.1-2,11.1-4.5
				C47.9,88,47.4,87.3,46.7,86.7z"/>
			<path d="M46.7,93.4c-2.6,1.4-6.3,2-9.9,2c-3.6,0-7.3-0.6-9.9-2c-0.8,0.6-0.3,1.3-0.3,2c0,2.5,2.6,4.5,11.1,4.5
				c6.1,0,10.2-2,10.2-4.5C47.9,94.7,47.4,94,46.7,93.4z"/>
		</g>
	</g>
	<g>
		<g>
			<ellipse cx="89.2" cy="68.6" rx="11.1" ry="4.5"/>
			<path d="M99.1,73.3c-2.6,1.4-6.3,2-9.9,2s-7.3-0.6-9.9-2c-0.8,0.6-1.2,1.3-1.2,2c0,2.5,5,4.5,11.1,4.5s11.1-2,11.1-4.5
				C100.4,74.6,99.9,73.9,99.1,73.3z"/>
			<path d="M99.1,80c-2.6,1.4-6.3,2-9.9,2s-7.3-0.6-9.9-2c-0.8,0.6-1.2,1.3-1.2,2c0,2.5,5,4.5,11.1,4.5s11.1-2,11.1-4.5
				C100.4,81.3,99.9,80.6,99.1,80z"/>
			<path d="M99.1,86.6c-2.6,1.4-6.3,2-9.9,2s-7.3-0.6-9.9-2c-0.8,0.6-1.2,1.3-1.2,2c0,2.5,5,4.5,11.1,4.5s11.1-2,11.1-4.5
				C100.4,87.9,99.9,87.3,99.1,86.6z"/>
		</g>
		<g>
			<path d="M99.1,80.1c-2.6,1.4-6.3,2-9.9,2s-7.3-0.6-9.9-2c-0.8,0.6-1.2,1.3-1.2,2c0,2.5,5,4.5,11.1,4.5s11.1-2,11.1-4.5
				C100.4,81.3,99.9,80.7,99.1,80.1z"/>
			<path d="M99.1,86.7c-2.6,1.4-6.3,2-9.9,2s-7.3-0.6-9.9-2c-0.8,0.6-1.2,1.3-1.2,2c0,2.5,5,4.5,11.1,4.5s11.1-2,11.1-4.5
				C100.4,88,99.9,87.3,99.1,86.7z"/>
			<path d="M99.1,93.4c-2.6,1.4-6.3,2-9.9,2s-7.3-0.6-9.9-2c-0.8,0.6-1.2,1.3-1.2,2c0,2.5,5,4.5,11.1,4.5s11.1-2,11.1-4.5
				C100.4,94.7,99.9,94,99.1,93.4z"/>
		</g>
	</g>
	<g>
		<g>
			<ellipse cx="11.2" cy="81.9" rx="11.1" ry="4.5"/>
			<path d="M21,86.6c-2.6,1.4-6.3,2-9.9,2s-7.3-0.6-9.9-2c-0.8,0.6-1.2,1.3-1.2,2C0,91,5,93,11.2,93s11.1-2,11.1-4.5
				C22.3,87.9,21.8,87.2,21,86.6z"/>
		</g>
		<path d="M21,93.5c-2.6,1.4-6.3,2-9.9,2s-7.3-0.6-9.9-2c-0.8,0.6-1.2,1.3-1.2,2C0,98,5,100,11.1,100s11.1-2,11.1-4.5
			C22.3,94.8,21.8,94.2,21,93.5z"/>
	</g>
</g>
</svg>
