<?xml version="1.0" encoding="utf-8"?>
<!-- Generator: Adobe Illustrator 22.0.1, SVG Export Plug-In . SVG Version: 6.00 Build 0)  -->
<svg version="1.1" id="Layer_1" xmlns="http://www.w3.org/2000/svg" xmlns:xlink="http://www.w3.org/1999/xlink" x="0px" y="0px"
	 viewBox="0 0 100 100" style="enable-background:new 0 0 100 100;" xml:space="preserve">
<g id="Peru">
	<path d="M16.7,33.3c-0.6-0.1-1-1-0.5-1.8c1.4,0.3,1.8,0.1,1.7-1.3c-0.2-1.8-1.4-0.9-1.7-2.2c-0.1-0.6,0.7-0.6,0.7-1
		c0-0.6-0.5-1-0.6-1.7c-0.2-1.7,1-1.9,1.6-3.7c0.3,0.1,0.8-0.1,1.1-0.1c0.2-1.7,2.2-3.1,4-3.3c1.6,2.4-2.9,3.6-1.6,5
		c0.5,0.6,2.1-0.1,2.7,0c0.7,0.1,1.8,0.4,2.5,0.9c0.7,0.6,0.9,2,1.4,2.3c1.7,0.9,1.9-1.3,2.3-2.4c0.5-1.3,1.3-2.4,1.8-3.7
		c0.5-1.1,0.4-2.6,2.2-1.7c0.9-3.4,4.1-3.4,6.6-5c1.5-1,2.7-2.3,4.1-3.4c1.8-1.6,1.7-2.2,2.3-4.3c0.3,0.2,0.9,0,1.2,0.1
		c1.1-2.5-1.3-3.5-1-6c0.6,0.7,1.2,1.5,2.2,1.9c1,0.4,0.9-0.6,2.1,0.2c0.8,0.6,1.7,2.8,1.9,3.7c0.8-0.2,2.4-0.2,3.2,0.4
		c0.9,0.7,0.8,2.2,2.2,2.3c-0.3,0.4-0.6,1-1.1,1.3c1.3,1,2.5,0.9,2.3,3c1.6,0.6,2.3-0.4,3.7-0.5c0.7-0.1,1.5,0.5,2.1,0.4
		c0.6-0.1,0.5-1,1.1-1.1c0.7-0.1,1.4,0.5,2.1,0.6c0.5,0.1,1.4-0.1,1.6,0c1.3,0.3,2.3,1.5,4,1.3c0,0.1,0,0.2,0.1,0.3
		c0.2-0.2,0.9-0.4,1.1-0.5c0.9,2.6-3.6,4.2-3.5,6.9c0.7,0,2.4,0,3,0.4c0.8,0.6,1.2,3.2-0.4,2.4c-1.5-0.8,0.3-2.1-2.2-1.7
		c-1,0.2-2.3,0.7-1.7,1.8c-2.2,0-3.6,1.2-5.5,2.1C65,25.5,64,25.6,63.4,26c-0.7,0.4-1.1,1.3-1.9,1.6c-0.2-0.4-0.5-0.6-0.6-0.9
		c-0.4,0.7-0.1,1.5-0.5,2.2c-0.3,0.7-1.1,1.4-1.6,2.1c0.1,0.1,0.3,0.1,0.4,0.2c0.2,0.3,0.3,0.9,0.4,1.2c-2,0.5,0.2,1.3,0,2.5
		c-0.1,0.8-1.8,1.7-2.6,1.3c-0.3,1.3-1,2.6-1.2,3.9c0,0.3,0.6,0.3,0.6,0.6c0,0.3-0.3,0.5-0.4,0.7c0,0.7-0.5,1-0.3,1.8
		c2.2,0.7,2.1,3.7,4.6,4.4c0.1,0.7-0.4,1.3-1.1,1.4c-0.1-0.2-0.1-0.4-0.2-0.5c-0.5,0.2-1.2,0.6-1.5,0.9c1.3,0.3,2.9-0.2,4.4,0.3
		c0,0.9,0.7,2.2,1.6,1.4c0.6,0.6,1,1.3,1.2,2.1c0-0.1-0.2-0.3-0.3-0.4c1.8-1.4,2.8-0.1,4.5,0.2c2.1,0.3,3.2-1.2,4.8-2.4
		c0.4,0.7-0.2,1.8-0.1,2.6c0.1,1,0.6,2,0.7,3c0.3,2.3,0.8,4.3,3.5,2.3c1.8,2,5.4,4.2,6.1,7c0.2,0.9-0.2,2.9-0.4,3.7
		c-0.2,0.7-0.5,1.4-0.6,2.3c-0.1,0.8,0,1.4-0.4,2.2c-0.2,0-0.3-0.1-0.5-0.2c-0.5,1.9,1.5,4.2,1.1,6.3c-0.2,0.9-0.9,1.3-0.9,2.1
		c0,0.5,0.6,0.8,0.6,1.3c0,0.5-0.2,1-0.2,1.3c0,0.9-0.4,0.8,0,1.6c0.2,0.6,0.9,0.8,1.1,1.3c0.8,1.4,0.5,1.9-0.4,3.3
		c-1.2,1.8-4.3,2.7-1.5,4.6c-0.5,0.3-1,0.8-1.3,1.4c1.9,1.2-1.7,2.2-2.5,2.6c-0.9,0.4-0.5,1.2-1.7,0.9c-0.4-0.1-1.3-1.4-1.7-1.7
		c-1-0.9-3.5-1.1-4.1-1.9c-0.4-0.5,0-1.5-0.4-2.1c-0.4-0.6-1.3-0.9-1.8-1.4c-1.3-1-1.7-2.1-3.2-2.7c-1-0.4-1.5,0-2.5-0.8
		c-0.7-0.5-0.9-1.3-1.6-1.7c-0.9-0.5-2,0-2.8-0.3c-0.9-0.4-0.7-0.9-1.4-1.5c-1-0.8-2.6-1.2-2.8-2.4c-1.4-0.5-1.7,0.6-3.1-0.4
		c-1.2-0.8-1.5-1.8-1.4-3.1c-1.7-0.3-3.7-1-5.1-1.9c1.2-1.4-1.1-1.7-1.8-2.8c0.9-0.8,2.6-0.7,2.8-2c-2.6-1.6-2.9-4.8-4.8-7
		c-0.5-0.5-0.9-0.5-1.3-1.3c-0.3-0.7,0-1.5-0.4-2.2s-0.9-0.7-1.5-1.1c-1.1-0.8-0.9-0.7-1.3-1.7c-0.6-1.5-1.7-3.1-2.5-4.8
		c-0.6-1.3-0.5-2-1.5-3.4c-1.8-2.5-1.5-5.6-3.6-8.2c-0.8-1-1.2-1.4-2.6-1.7c-0.1-3.4-4.8-8.5-8.3-7.5c-0.1-0.4-0.5-0.6-0.6-0.9
		c-0.2,0.1-0.5,0.2-0.7,0.4c0.3,0.3,0.3-0.1,0.5-0.1"/>
</g>
</svg>
